<svg xmlns="http://www.w3.org/2000/svg" width="512" height="512" viewBox="0 0 512 512" version="1.1">
	<path d="M 130.524 63.287 C 129.769 65.095, 128.336 69.338, 127.341 72.716 L 125.531 78.858 118.015 78.679 C 111.378 78.521, 109.878 78.845, 105.176 81.449 C 96.398 86.312, 90.574 95.592, 87.416 109.750 L 85.799 117 64.471 117 C 46.415 117, 42.902 117.241, 41.571 118.571 C 39.523 120.620, 39.420 133.677, 41.415 138.452 C 43.726 143.981, 44.936 144.216, 67.019 143.425 L 86.912 142.713 88.081 145.607 C 94.330 161.071, 100.651 169.947, 108.849 174.766 C 112.679 177.017, 114.695 177.500, 120.269 177.500 L 127.038 177.500 126.382 184.746 C 125.540 194.033, 127.470 199.535, 133.329 204.549 L 137.500 208.118 137.809 266.059 C 138.092 319.161, 137.981 324, 136.482 324 C 135.582 324, 133.475 325.371, 131.798 327.048 C 129.075 329.771, 128.805 330.576, 129.260 334.610 C 129.803 339.434, 133.094 344, 136.026 344 C 137.508 344, 137.769 345.959, 138.257 360.750 C 138.639 372.313, 138.473 377.707, 137.721 378.172 C 135.881 379.310, 120.438 381.201, 111.740 381.355 L 103.500 381.500 103.199 385.089 C 102.950 388.066, 102.310 388.959, 99.449 390.323 C 97.260 391.367, 96 392.679, 96 393.916 C 96 395.527, 97.312 396.155, 103.585 397.551 C 110.926 399.184, 111.642 399.167, 125.835 397.024 C 141.250 394.696, 211.755 381.640, 218.334 379.895 C 220.442 379.335, 223.592 379.180, 225.334 379.549 C 229.234 380.376, 308.837 406.860, 311.212 408.121 C 312.182 408.636, 313.856 412.167, 315.073 416.265 C 316.255 420.244, 317.876 424.771, 318.675 426.325 C 320.038 428.974, 319.974 429.295, 317.642 431.456 C 316.274 432.724, 313.945 436.177, 312.467 439.131 C 310.989 442.084, 308.872 445.490, 307.763 446.699 C 306.654 447.909, 305.984 449.517, 306.275 450.273 C 306.565 451.030, 312.584 454.051, 319.651 456.986 C 333.928 462.917, 342.188 464.257, 349.500 461.828 C 352.692 460.768, 353.563 459.954, 353.812 457.801 C 354.066 455.597, 353.332 454.539, 349.812 452.037 C 343.402 447.482, 341 445.002, 341 442.942 C 341 440.728, 338.976 441.324, 378.464 431.911 L 409.237 424.575 410.989 426.739 C 412.038 428.034, 412.551 429.898, 412.267 431.385 C 411.851 433.561, 412.267 433.992, 415.646 434.886 C 417.766 435.447, 423.425 436.465, 428.223 437.149 C 436.282 438.298, 437.309 438.242, 441.723 436.417 C 445.081 435.028, 446.593 433.795, 446.814 432.265 C 447.073 430.464, 445.924 429.483, 440.138 426.570 C 436.294 424.634, 432.872 422.601, 432.533 422.053 C 432.194 421.505, 432.672 419.904, 433.595 418.496 C 435.755 415.198, 435.743 409.064, 433.570 405.748 C 430.584 401.191, 427.338 400.819, 415.443 403.675 C 409.602 405.076, 404.495 405.836, 404.094 405.362 C 403.692 404.888, 401.908 397.525, 400.129 389 C 398.350 380.475, 395.322 366.391, 393.400 357.702 C 390.381 344.054, 390.068 341.455, 391.099 338.603 C 393.511 331.932, 389.598 327.068, 384.504 330.405 C 382.801 331.522, 380.847 331.804, 377.754 331.380 C 374.792 330.974, 370.999 331.457, 365.887 332.892 C 355.797 335.723, 354.504 335.631, 352.990 331.976 C 352.301 330.313, 351.009 328.527, 350.119 328.007 C 348.737 327.199, 348.811 327.056, 350.624 327.030 C 351.793 327.014, 354.649 326.329, 356.972 325.510 C 361.254 323.999, 397.079 317.782, 409 316.480 C 412.575 316.090, 416.268 315.367, 417.207 314.873 C 421.003 312.877, 420.640 299.648, 416.686 295.870 C 414.667 293.942, 413.696 293.825, 404 294.335 C 398.225 294.639, 386.894 296.019, 378.820 297.402 C 365.554 299.674, 363.855 299.775, 361.195 298.447 C 355.351 295.532, 346.762 294.786, 323.403 295.167 C 301.420 295.525, 300.479 295.464, 303.903 293.915 C 308.094 292.017, 313 287.363, 313 285.284 C 313 279.623, 297.593 253.256, 271.370 214.041 L 265.044 204.582 267.076 202.419 C 268.558 200.842, 269.485 197.579, 270.500 190.378 C 271.855 180.765, 277.204 163.380, 282.472 151.467 C 285.523 144.568, 285.613 142.121, 283 137 C 281.900 134.844, 281 132.837, 281 132.540 C 281 132.243, 283.837 132, 287.305 132 L 293.610 132 294.869 139.494 C 297.307 154.002, 305.277 165.630, 314.500 168.136 C 320.683 169.816, 331.071 168.689, 337.242 165.670 C 344.348 162.193, 347.569 158.611, 352.443 148.759 L 356.530 140.500 369.854 140 C 382.944 139.509, 383.220 139.451, 385.589 136.694 C 389.264 132.418, 388.697 122.668, 384.600 119.704 C 383.995 119.266, 377.721 119.041, 370.658 119.204 L 357.816 119.500 355.587 112.500 C 350.182 95.519, 339.640 86.753, 324.457 86.614 C 318.567 86.560, 316.439 87.036, 311.457 89.525 C 303.526 93.486, 298.918 99.683, 295.318 111.234 L 292.585 120 283.959 120 C 275.064 120, 273.323 119.520, 274.979 117.525 C 275.508 116.888, 277.023 113.246, 278.345 109.433 C 279.668 105.620, 281.080 101.710, 281.484 100.745 C 282.060 99.367, 281.430 98.660, 278.555 97.458 C 276.539 96.616, 273.255 95.831, 271.255 95.714 L 267.618 95.500 264.384 104 C 260.422 114.417, 260.226 116.712, 263.250 117.294 C 264.488 117.533, 245.207 117.789, 220.404 117.864 C 195.601 117.939, 171.188 118.292, 166.154 118.650 L 157 119.299 157 116.255 C 157 112.586, 153.538 101.032, 150.781 95.500 C 149.685 93.300, 147.218 89.862, 145.299 87.861 C 142.211 84.639, 141.948 83.966, 143.008 81.986 C 145.387 77.540, 148.771 66.247, 148.066 65.106 C 147.103 63.548, 137.633 60, 134.438 60 C 132.512 60, 131.566 60.794, 130.524 63.287 M 127.787 91.500 C 133.623 98.978, 137.988 111.975, 138.015 121.960 C 138.024 125.007, 138.503 128.175, 139.081 129 C 140.514 131.046, 139.263 116.432, 137.390 109.237 C 135.432 101.721, 131.293 93.637, 127.699 90.310 L 124.665 87.500 127.787 91.500 M 332.571 99 C 338.782 106.083, 340.623 110.590, 342.580 123.500 L 343.945 132.500 343.592 123.891 C 343.156 113.271, 339.861 105.128, 333.670 99.374 C 329.629 95.618, 329.596 95.606, 332.571 99 M 103.589 114.077 C 102.165 115.769, 101 117.456, 100.999 117.827 C 100.999 118.197, 103.146 118.351, 105.771 118.169 C 111.258 117.788, 113.697 119.646, 115.016 125.209 L 115.795 128.500 115.968 125.500 C 116.118 122.890, 116.252 122.760, 117 124.500 C 118.931 128.995, 118.121 133.079, 114.600 136.600 C 110.641 140.559, 109.046 140.758, 104.118 137.907 L 100.500 135.814 103.425 138.509 C 108.343 143.042, 114.950 140.840, 118.429 133.508 C 122.027 125.927, 119.459 115.840, 113.094 112.549 C 108.701 110.277, 106.487 110.633, 103.589 114.077 M 104.750 114.080 C 101.813 115.791, 102.791 116.838, 106.821 116.297 C 109.582 115.927, 111.108 116.251, 112.321 117.464 C 113.244 118.387, 114 118.739, 114 118.246 C 114 116.840, 109.530 112.997, 107.936 113.030 C 107.146 113.047, 105.713 113.519, 104.750 114.080 M 310.372 114.448 C 308.652 115.192, 305.952 117.421, 304.372 119.400 L 301.500 123 288.750 123 C 281.738 123, 276 123.204, 276 123.453 C 276 123.702, 276.522 125.052, 277.161 126.453 C 278.312 128.980, 278.417 129, 290.536 129 L 302.750 129 303.363 132.065 C 303.700 133.751, 305.353 136.507, 307.036 138.190 C 309.731 140.885, 310.587 141.185, 314.201 140.700 C 316.882 140.340, 319.206 139.202, 320.903 137.416 L 323.500 134.682 320.615 136.841 C 316.427 139.975, 310.743 139.760, 308.073 136.365 C 306.933 134.916, 306 132.600, 306 131.219 L 306 128.708 308.452 131.354 C 311.321 134.449, 313.020 134.656, 315.802 132.250 C 319.056 129.436, 319.377 126.550, 316.771 123.520 C 314.952 121.406, 313.920 120.982, 311.852 121.501 C 310.413 121.862, 308.780 123.135, 308.223 124.329 C 307.257 126.402, 307.176 126.414, 306.439 124.593 C 305.406 122.046, 307.839 117.853, 311.322 116.178 C 315.081 114.371, 318.910 115.791, 321.839 120.077 C 323.760 122.888, 324.102 124.447, 323.753 128.793 C 323.515 131.763, 323.689 133.519, 324.149 132.793 C 325.521 130.630, 325.097 124.007, 323.351 120.326 C 320.639 114.613, 315.438 112.257, 310.372 114.448 M 158.414 125.488 C 157.235 130.184, 158.188 130.801, 165.026 129.766 C 173.259 128.520, 173.917 129.289, 170.957 136.690 C 167.582 145.130, 166.166 146.998, 163.135 147.014 C 157.644 147.042, 156.180 148.057, 154.370 153.093 C 153.402 155.784, 150.962 160.164, 148.947 162.825 C 145.745 167.056, 145.204 168.598, 144.640 175.082 C 144.286 179.162, 143.717 184.239, 143.375 186.365 C 142.589 191.259, 143.891 192.170, 150.500 191.350 C 153.250 191.008, 155.651 190.602, 155.835 190.446 C 156.019 190.291, 154.984 186.640, 153.535 182.332 C 149.224 169.516, 149.201 167.266, 153.324 162.069 C 157.484 156.826, 166.465 150.544, 172.323 148.780 C 175.071 147.952, 183.340 147.518, 196.500 147.511 C 224.355 147.496, 224.827 147.749, 242.121 171.992 C 248.379 180.765, 253.766 187.956, 254.091 187.971 C 254.416 187.987, 255.259 185.423, 255.963 182.273 C 256.668 179.123, 259.244 170.010, 261.687 162.023 C 264.130 154.035, 266.335 146.600, 266.588 145.500 C 266.864 144.299, 264.884 139.506, 261.630 133.500 L 256.213 123.500 207.628 123.241 L 159.043 122.981 158.414 125.488 M 267.048 125.161 C 269.506 129.894, 277.241 141.093, 277.721 140.613 C 278.718 139.615, 269.394 123.507, 267.622 123.166 C 266.051 122.863, 265.982 123.106, 267.048 125.161 M 49.005 126.010 C 49.552 127.032, 50 129.069, 50 130.536 L 50 133.203 78.750 132.828 C 110.393 132.417, 112 132.132, 112 126.931 L 112 123.932 80.005 124.042 C 49.152 124.148, 48.046 124.218, 49.005 126.010 M 368.822 124.745 L 358.144 125.066 357.471 128.132 C 357.101 129.818, 357.181 131.564, 357.649 132.011 C 358.117 132.459, 364.462 132.575, 371.750 132.269 C 384.722 131.724, 385 131.665, 385 129.428 C 385 126.892, 382.506 123.883, 380.679 124.212 C 380.030 124.329, 374.695 124.569, 368.822 124.745 M 157.667 133.667 C 156.078 135.255, 157.261 136.099, 160.673 135.810 C 165.503 135.402, 166.424 133, 161.750 133 C 159.871 133, 158.033 133.300, 157.667 133.667 M 161.002 160.191 C 161.005 161.640, 171.010 183.980, 190.699 226.500 C 218.554 286.655, 223.156 295.930, 226.687 299.030 C 228.547 300.663, 230.570 302, 231.183 302 C 231.795 302, 230.767 300.972, 228.898 299.716 C 225.204 297.232, 223.683 294.485, 211.336 268 C 182.076 205.237, 164.345 166.222, 163.438 162.610 C 162.725 159.769, 160.999 158.054, 161.002 160.191 M 160.500 204.306 C 158.300 204.817, 155.992 205.373, 155.370 205.541 C 154.585 205.752, 154.495 207.165, 155.077 210.173 C 155.537 212.553, 155.932 228.761, 155.956 246.191 C 155.980 263.621, 156.359 278.104, 156.797 278.375 C 157.236 278.646, 165.673 278.005, 175.547 276.950 C 185.421 275.896, 194.063 275.026, 194.750 275.017 C 195.438 275.008, 196 274.421, 196 273.714 C 196 273.007, 191.215 262.094, 185.367 249.464 C 179.519 236.834, 172.714 221.550, 170.245 215.500 C 167.776 209.450, 165.473 204.247, 165.128 203.937 C 164.783 203.628, 162.700 203.794, 160.500 204.306 M 178 288.057 C 166.175 289.602, 156.387 290.896, 156.250 290.933 C 156.113 290.970, 156 297.975, 156 306.500 L 156 322 158.772 322 C 160.296 322, 172.334 320.191, 185.522 317.980 C 198.710 315.769, 211.453 313.745, 213.839 313.484 C 216.226 313.222, 218.551 312.778, 219.006 312.496 C 219.461 312.215, 222.094 312.470, 224.857 313.063 C 229.191 313.992, 229.937 314.508, 230.291 316.820 L 230.700 319.500 230.850 316.731 C 230.982 314.303, 230.352 313.673, 225.750 311.630 C 222.039 309.982, 219.840 309.540, 218.250 310.124 C 215.290 311.211, 209.875 309.324, 212.034 307.958 C 212.840 307.448, 214.850 306.988, 216.500 306.936 C 218.158 306.884, 218.829 306.588, 218 306.274 C 217.175 305.961, 213.677 302.856, 210.226 299.373 C 204.906 294.004, 204.048 292.656, 204.587 290.507 C 205.311 287.623, 203.585 284.937, 201.128 285.124 C 200.232 285.192, 189.825 286.512, 178 288.057 M 316.750 306.662 C 317.438 306.940, 318.563 306.940, 319.250 306.662 C 319.938 306.385, 319.375 306.158, 318 306.158 C 316.625 306.158, 316.063 306.385, 316.750 306.662 M 310.250 307.689 C 311.212 307.941, 312.788 307.941, 313.750 307.689 C 314.712 307.438, 313.925 307.232, 312 307.232 C 310.075 307.232, 309.288 307.438, 310.250 307.689 M 303.250 308.689 C 304.212 308.941, 305.788 308.941, 306.750 308.689 C 307.712 308.438, 306.925 308.232, 305 308.232 C 303.075 308.232, 302.288 308.438, 303.250 308.689 M 297.269 309.693 C 298.242 309.947, 299.592 309.930, 300.269 309.656 C 300.946 309.382, 300.150 309.175, 298.500 309.195 C 296.850 309.215, 296.296 309.439, 297.269 309.693 M 291.269 310.693 C 292.242 310.947, 293.592 310.930, 294.269 310.656 C 294.946 310.382, 294.150 310.175, 292.500 310.195 C 290.850 310.215, 290.296 310.439, 291.269 310.693 M 286.813 311.683 C 287.534 311.972, 288.397 311.936, 288.729 311.604 C 289.061 311.272, 288.471 311.036, 287.417 311.079 C 286.252 311.127, 286.015 311.364, 286.813 311.683 M 262.813 313.683 C 263.534 313.972, 264.397 313.936, 264.729 313.604 C 265.061 313.272, 264.471 313.036, 263.417 313.079 C 262.252 313.127, 262.015 313.364, 262.813 313.683 M 269.750 313.662 C 270.438 313.940, 271.563 313.940, 272.250 313.662 C 272.938 313.385, 272.375 313.158, 271 313.158 C 269.625 313.158, 269.063 313.385, 269.750 313.662 M 277.623 314.696 C 278.241 315.138, 280.581 319.100, 282.823 323.500 C 287.834 333.332, 288.120 332.913, 283.562 322.417 C 281.299 317.205, 279.506 314.396, 278.312 314.196 C 277.184 314.007, 276.924 314.196, 277.623 314.696 M 230.079 323.128 C 230.036 324.023, 230.787 325.373, 231.750 326.128 C 233.271 327.320, 233.354 327.303, 232.384 326 C 231.771 325.175, 231.019 323.825, 230.713 323 C 230.249 321.745, 230.145 321.766, 230.079 323.128 M 344.750 328.662 C 345.438 328.940, 346.563 328.940, 347.250 328.662 C 347.938 328.385, 347.375 328.158, 346 328.158 C 344.625 328.158, 344.063 328.385, 344.750 328.662 M 333.042 331.570 C 327.092 333.549, 324.997 333.846, 322.686 333.040 C 320.599 332.313, 317.099 332.463, 310.164 333.579 C 304.870 334.431, 300.345 335.321, 300.109 335.558 C 299.873 335.794, 300.218 337.783, 300.875 339.977 C 302.343 344.878, 304.696 346.350, 308.782 344.926 C 311.671 343.919, 311.734 343.762, 310.839 339.779 C 309.778 335.056, 310.625 334.040, 315.643 334.015 C 319.898 333.995, 321.820 339.244, 318.551 341.957 C 317.328 342.973, 318.040 344.350, 323.139 350.830 C 333.839 364.425, 337.746 368.002, 341.876 367.985 C 347.713 367.960, 348.161 367.273, 346.745 360.520 C 345.701 355.544, 345.011 354.349, 342.230 352.708 C 336.373 349.252, 335.184 343.574, 339.592 340.106 L 342.184 338.067 339.983 334.976 C 337.542 331.548, 337.552 331.501, 341.037 330.110 C 346.037 328.114, 340.261 329.169, 333.042 331.570 M 134.473 333.044 C 133.536 334.560, 136.076 337.324, 137.290 336.110 C 138.412 334.988, 137.539 332, 136.090 332 C 135.556 332, 134.828 332.470, 134.473 333.044 M 303.250 335.662 C 301.601 336.328, 301.654 340.145, 303.344 342.456 C 304.921 344.612, 310 343.904, 310 341.528 C 310 336.910, 306.879 334.198, 303.250 335.662 M 235 338.826 C 235 339.830, 233.703 345.270, 232.119 350.915 L 229.238 361.178 232.369 360.629 C 234.091 360.327, 238.342 359.776, 241.815 359.404 C 252.105 358.301, 253.065 355.753, 247.539 344.222 L 244.078 337 239.539 337 C 235.811 337, 235 337.326, 235 338.826 M 165 339.379 L 157.500 340.500 157.226 357.750 C 156.973 373.703, 157.086 375, 158.726 374.999 C 161.102 374.998, 192.163 369.395, 200.705 367.426 C 204.442 366.565, 207.914 365.455, 208.421 364.960 C 209.117 364.278, 217 339.768, 217 338.284 C 217 337.463, 171.397 338.424, 165 339.379 M 266.986 342.750 C 266.979 345.363, 266.730 348.405, 266.432 349.510 C 266.015 351.065, 266.583 351.781, 268.939 352.671 C 271.661 353.698, 271.920 354.149, 271.370 356.901 C 270.877 359.364, 271.228 360.378, 273.127 361.970 C 275.154 363.669, 275.281 364.108, 274 364.976 C 271.415 366.728, 265.713 367.986, 260 368.065 C 251.543 368.181, 249.268 369.554, 256 370.479 C 263.001 371.441, 268.822 373.339, 287.925 380.888 C 296.408 384.241, 303.500 386.834, 303.683 386.650 C 304.097 386.236, 293.433 362.638, 287.346 350.500 C 281.168 338.180, 280.967 338, 273.345 338 L 267 338 266.986 342.750 M 365 344.935 C 365 346.611, 366.907 356.816, 368.516 363.750 C 369.127 366.383, 373.044 366.857, 374.974 364.531 C 376.561 362.619, 374.495 350.343, 371.855 346.002 C 369.677 342.421, 365 341.693, 365 344.935 M 305 347.628 C 305 348.188, 307.049 351.848, 309.552 355.762 C 312.056 359.675, 317.892 371.291, 322.520 381.574 C 327.149 391.858, 331.678 401.092, 332.585 402.094 C 333.493 403.097, 336.320 404.593, 338.868 405.420 C 344.049 407.100, 356.890 409.444, 357.511 408.822 C 357.862 408.471, 352.855 385.452, 351.405 380.750 C 350.947 379.264, 349.590 379, 342.400 379 C 337.401 379, 332.618 378.433, 330.718 377.614 C 326.148 375.646, 320.220 369.112, 312.065 357.055 C 308.179 351.311, 305 347.068, 305 347.628 M 374.149 377.145 C 370.928 378.072, 370.826 378.253, 371.512 381.805 C 371.904 383.837, 373.243 390.964, 374.487 397.642 C 375.731 404.320, 377.057 410.283, 377.433 410.892 C 378.374 412.415, 382.230 412.284, 384.460 410.653 C 386.239 409.352, 386.208 408.854, 383.567 396.141 C 380.254 380.194, 379.125 375.972, 378.203 376.090 C 377.816 376.140, 375.992 376.614, 374.149 377.145" stroke="none" fill="black" fill-rule="evenodd"/>
</svg>